<svg xmlns="http://www.w3.org/2000/svg" viewBox="0 0 23 23"><path d="M1 1h7v7h-7zM9 1h1v1h1v2h1v2h1v-1h1v4h1v1h-1v1h-1v-2h-1v2h-1v-1h-1v1h1v1h2v1h-2v1h3v1h2v-1h1v1h1v1h2v1h-1v1h-1v-1h-1v1h-2v-1h1v-1h-1v1h-1v2h-2v-2h-1v-1h2v-1h-3v2h1v1h-1v1h-1v-5h1v-1h-1v-3h-5v-1h7v-4h-1v-1h-1zM11 1h2v1h-2zM15 1h7v7h-7zM2 2v5h5v-5zM13 2h1v2h-1zM16 2v5h5v-5zM3 3h3v3h-3zM17 3h3v3h-3zM9 5h1v1h-1zM9 7h1v1h-1zM12 7v1h1v-1zM1 9h1v1h-1zM17 9h1v1h1v1h-1v1h-1zM19 9h3v1h-3zM3 10h1v1h2v1h1v1h-2v-1h-1v1h1v1h-2v-2h-1v-1h1zM15 10h1v2h-2v-1h1zM7 11h1v1h-1zM20 11h2v1h-2zM1 12h1v2h-1zM19 12h1v1h-1zM7 13h2v1h-2zM15 13h1v1h-1zM18 14h3v1h-3zM1 15h7v7h-7zM2 16v5h5v-5zM21 16h1v2h-2v-1h1zM3 17h3v3h-3zM17 18h1v1h-1zM19 18h1v1h2v2h-2v1h-1zM10 19h1v1h-1zM15 19h1v2h-2v-1h1zM11 20h1v1h1v1h-4v-1h2zM17 20h1v1h-1z"/></svg>