<svg xmlns="http://www.w3.org/2000/svg" viewBox="0 0 23 23"><path d="M1 1h7v7h-7zM13 1h1v2h-1v1h-1v-2h1zM15 1h7v7h-7zM2 2v5h5v-5zM16 2v5h5v-5zM3 3h3v3h-3zM9 3h2v1h-1v1h3v-1h1v7h-1v-2h-1v-1h1v-2h-3v3h-1zM17 3h3v3h-3zM11 7h1v1h-1zM1 9h1v2h-1zM3 9h5v1h-1v1h1v1h-2v1h-2v1h-1v-1h-1v-1h1zM15 9h5v1h2v1h-1v2h1v2h-1v-1h-1v-1h-2v1h-1v-1h-1v-1h1v-1h1v-1h-1v1h-1v-1h-1zM4 10v1h2v-1zM9 10h2v1h-2zM11 11h2v1h-2zM14 11h1v1h-1zM9 12h2v4h2v-1h-1v-2h1v1h1v-1h1v1h1v1h1v1h-1v1h-2v2h-1v-2h-1v1h-1v1h2v1h-1v1h1v1h-2v-1h-1v-1h-1v-4h1v-1h-1v-1h1v-1h-1zM7 13h2v1h-2zM18 14h1v1h2v1h-1v1h-1v1h1v3h1v1h-2v-2h-1v2h-1v-1h-1v-1h1v-1h1zM1 15h7v7h-7zM14 15v1h1v-1zM2 16v5h5v-5zM3 17h3v3h-3zM16 17h1v2h-1zM20 17h1v1h-1zM14 19h1v1h-1zM9 21h1v1h-1zM14 21h1v1h-1z"/></svg>