<svg xmlns="http://www.w3.org/2000/svg" viewBox="0 0 23 23"><path d="M1 1h7v7h-7zM9 1h5v3h-1v-2h-1v1h-2v1h-1zM15 1h7v7h-7zM2 2v5h5v-5zM16 2v5h5v-5zM3 3h3v3h-3zM17 3h3v3h-3zM10 4h2v1h2v1h-2v2h-1v-3h-1zM9 5h1v1h-1zM9 7h1v1h-1zM13 7h1v1h-1zM10 8h1v1h-1zM1 9h1v1h-1zM4 9h6v1h1v1h-2v1h-2v-1h1v-1h-1v1h-2v-1h-1zM12 9h1v1h-1zM14 9h1v1h-1zM17 9h1v1h-1zM19 9h3v1h-2v2h1v3h-1v1h2v1h-1v1h-3v-2h1v-1h-1v-1h-1v-2h1v1h1v-1h-1v-1h1zM2 10h1v1h-1zM13 10h1v2h1v1h1v1h-1v1h-1v-1h-2v-1h-1v1h-1v2h1v-1h1v1h1v1h-3v1h1v1h-2v-7h3v-1h1zM15 10h1v1h1v1h-2zM1 11h1v1h-1zM3 11h1v1h1v1h1v1h-3v-1h-1v-1h1zM21 11h1v1h-1zM1 13h1v1h-1zM7 13h1v1h-1zM16 14h1v1h-1zM1 15h7v7h-7zM13 15h1v1h-1zM15 15h1v1h1v1h-1v2h-1v1h-2v-3h1v1h1v-1h-1v-1h1zM17 15h1v1h-1zM2 16v5h5v-5zM3 17h3v3h-3zM11 19h1v1h-1zM16 19h2v1h2v-1h2v2h-2v1h-1v-1h-2v-1h-1zM10 20h1v1h-1zM12 20h1v2h-1zM15 20h1v1h-1zM9 21h1v1h-1zM14 21h1v1h-1z"/></svg>