<svg xmlns="http://www.w3.org/2000/svg" viewBox="0 0 23 23"><path d="M1 1h7v7h-7zM10 1h4v5h-1v-2h-3v5h-1v-6h1zM15 1h7v7h-7zM2 2v5h5v-5zM11 2v1h1v-1zM16 2v5h5v-5zM3 3h3v3h-3zM17 3h3v3h-3zM11 5h1v1h-1zM12 6h1v1h-1zM11 7h1v1h-1zM13 7h1v1h-1zM1 9h1v1h1v-1h5v1h-3v1h-4zM10 9h1v2h1v1h-1v1h-2v-1h-2v1h1v1h-3v-1h-1v1h-2v-2h4v-1h2v-1h1v1h1zM12 9h1v1h2v-1h5v2h1v1h1v1h-1v1h-1v-1h-1v1h-1v-3h1v-1h-3v1h1v1h-1v1h-2v2h-1v-2h-1v-1h1v-1h-1zM21 10h1v1h-1zM14 11v1h1v-1zM16 13h1v2h-1zM9 14h3v1h-1v1h-1v-1h-1zM19 14h1v1h-1zM21 14h1v1h-1zM1 15h7v7h-7zM12 15h1v1h-1zM14 15h1v1h-1zM17 15h1v1h2v-1h1v3h-1v-1h-2v1h-1v-1h-1v-1h1zM2 16v5h5v-5zM9 16h1v1h1v-1h1v1h1v1h1v-1h1v1h2v2h-1v1h-2v1h-1v-1h-2v1h-2v-1h1v-1h-1zM3 17h3v3h-3zM11 18v2h2v-1h-1v-1zM18 18h2v3h-2v-1h1v-1h-1zM14 19v1h1v-1zM20 21h1v1h-1z"/></svg>