<svg xmlns="http://www.w3.org/2000/svg" viewBox="0 0 31 31"><path d="M1 1h7v7h-7zM9 1h1v1h-1zM14 1h2v1h1v1h-1v1h-1v-1h-2v1h1v1h-2v1h1v1h-1v1h-1v-1h-1v1h1v1h-1v1h-1v1h-1v-1h-1v-1h2v-5h1v-1h2v-1h2zM17 1h1v1h-1zM20 1h1v1h1v2h-1v1h-1zM23 1h7v7h-7zM2 2v5h5v-5zM24 2v5h5v-5zM3 3h3v3h-3zM18 3h1v1h-1zM25 3h3v3h-3zM10 5v1h1v-1zM19 5h1v1h1v1h-1v1h-1zM21 5h1v1h-1zM17 6h1v2h1v2h1v-1h7v1h-1v1h-1v2h-2v1h-1v1h1v1h1v1h-1v1h-2v-1h-1v-1h1v-3h-2v1h-5v1h3v1h2v1h1v1h1v1h-2v-1h-1v-1h-2v-1h-1v2h1v1h-2v-1h-3v-1h1v-1h1v-4h1v1h1v-1h1v1h2v-1h1v-1h-1v1h-1v-2h1v-1h-2v-1h1zM13 7h1v1h1v2h1v1h-4v-1h2v-1h-2v-1h1zM15 7h1v1h-1zM21 7h1v1h-1zM1 9h1v1h1v1h1v1h1v1h-4zM5 9h1v1h-1zM29 9h1v4h-1zM10 10h1v1h-1zM21 10v1h-1v1h3v-1h-1v-1zM5 11h3v1h-3zM26 11h1v1h-1zM8 12h4v3h-1v-2h-3zM7 13h1v1h-1zM26 13h1v1h1v1h-2v1h1v1h-2v-1h-1v-1h1v-1h1zM1 14h1v1h1v1h-2zM5 14h1v1h2v-1h2v1h-1v1h-2v1h2v1h1v1h-1v2h-1v-1h-1v-1h1v-1h-2v-2h-1zM19 14h1v2h-1zM23 14h1v1h-1zM29 14h1v3h-2v-1h1zM10 15h1v1h-1zM4 16h1v2h-1zM1 17h1v1h2v1h1v1h-2v-1h-2zM27 17h1v2h-1zM5 18h1v1h-1zM17 18h1v1h1v3h-1v-2h-1zM23 18h3v1h-2v1h1v1h1v1h2v2h-1v-1h-1v1h1v2h-7v-1h1v-1h-1v-1h-1v-1h2v-1h-1v-1h2v1h1zM29 18h1v4h-1v-2h-1v-1h1zM10 19h2v1h2v1h-3v-1h-1zM15 20h1v1h1v1h-3v-1h1zM26 20h1v1h-1zM1 21h2v1h-2zM4 21h2v1h-2zM7 21h1v1h-1zM9 21h2v1h-1v2h-1zM11 22h3v1h-3zM22 22v3h3v-3zM1 23h7v7h-7zM14 23h3v2h-1v-1h-1v2h3v-2h2v1h-1v1h1v1h1v1h-1v1h-1v1h-1v-2h1v-1h-1v1h-1v1h-1v-2h-1v3h-2v-1h-1v-1h1v-2h1zM23 23h1v1h-1zM29 23h1v1h-1zM2 24v5h5v-5zM11 24h1v1h-1zM3 25h3v3h-3zM9 25h1v1h-1zM12 25h1v1h-1zM28 25h2v1h-1v1h1v2h-1v1h-1v-2h-1v2h-1v-1h-4v-2h1v1h3v-1h2zM10 26h1v2h-1zM9 29h1v1h-1zM21 29h1v1h-1z"/></svg>