<svg xmlns="http://www.w3.org/2000/svg" viewBox="0 0 23 23"><path d="M1 1h7v7h-7zM12 1h2v2h-1v1h-3v1h1v1h-1v3h-1v-6h1v-1h1v1h1zM15 1h7v7h-7zM2 2v5h5v-5zM16 2v5h5v-5zM3 3h3v3h-3zM17 3h3v3h-3zM13 4h1v7h-1v-2h-1v1h-1v-4h1v2h1v-2h-1v-1h1zM1 9h1v2h-1zM3 9h5v1h-1v1h1v1h-1v1h2v1h-6v-1h1v-2h-1zM15 9h5v1h-1v2h-1v2h-1v-1h-1v-1h1v-1h1v-1h-1v1h-1v-1h-1zM21 10h1v1h-1zM5 11v2h1v-2zM9 11h1v1h-1zM11 11h2v1h-1v1h1v1h1v-1h1v1h1v1h1v1h-1v1h-2v2h-1v-2h-2v-1h-1v-1h-1v-1h2v1h1v1h1v-1h-1v-1h-1v-1h-1v-1h1zM14 11h1v1h-1zM20 11h1v1h1v1h-1v1h-2v-2h1zM2 12h1v1h-1zM18 14h1v1h-1zM21 14h1v1h-1zM1 15h7v7h-7zM14 15v1h1v-1zM20 15h1v1h-1zM2 16v5h5v-5zM9 16h1v2h1v2h1v1h1v1h-4v-1h1v-1h-1zM18 16h1v1h-1zM21 16h1v1h-1zM3 17h3v3h-3zM16 17h1v2h-1zM19 17h1v4h1v1h-4v-1h-1v-1h1v-1h2zM12 19h1v1h-1zM14 19h1v1h-1zM18 20v1h1v-1zM14 21h1v1h-1z"/></svg>